<svg class="MuiBox-root muirtl-0" xmlns="http://www.w3.org/2000/svg" data-name="Group 101" viewBox="0 0 91.671 38.23"><path class="MuiBox-root muirtl-0" fill="#13314E" d="m32.282 7.327 6.447 10.072h-5.228l-1.8-2.655-2.611-3.859-1.595 1.595a14.028 14.028 0 0 0-1.587-4.16.026.026 0 0 0-.007-.015 14.525 14.525 0 0 0-2.648-3.535l.038-2.814L23.322 0h4.04v6.717l1.014-1.136L33.364 0h5.364Z" data-name="Path 114"></path><path class="MuiBox-root muirtl-0" fill="#13314E" d="M46.107 5.07a6.026 6.026 0 0 0-8.41 3.235 6.942 6.942 0 0 0-.391 3.633 6.851 6.851 0 0 0 3.317 4.972 5.339 5.339 0 0 0 2.8.768s4.417-.03 6.011-3.9l-3.769-1.091a2.294 2.294 0 0 1-2.325 1.325 2.452 2.452 0 0 1-2.452-2h8.719c0 .007.572-4.965-3.5-6.943M41.33 9.304c.2-1.624 2.062-1.624 2.062-1.624a2.516 2.516 0 0 1 2.415 1.624Z" data-name="Path 115"></path><path class="MuiBox-root muirtl-0" fill="#13314E" d="M74.092 24.892a6.367 6.367 0 0 0-3.9 1.324 6.235 6.235 0 0 0-1.933 2.632 6.932 6.932 0 0 0-.369 3.777 6.842 6.842 0 0 0 3.453 4.919 5.351 5.351 0 0 0 2.641.685s4.416-.03 6.01-3.9l-3.769-1.091a2.294 2.294 0 0 1-2.325 1.324 2.461 2.461 0 0 1-2.46-2h8.719c.007-.007.8-6.852-6.063-7.672m-2.2 4.95c.2-1.625 2.061-1.625 2.061-1.625a2.514 2.514 0 0 1 2.415 1.625Z" data-name="Path 116"></path><path class="MuiBox-root muirtl-0" fill="#13314E" d="m48.47 5.086 5.394 10.08-2.881 6.372h4.272L62.891 4.68h-4.514l-2.542 6.041L53.36 4.68h-5.055Z" data-name="Path 117"></path><path class="MuiBox-root muirtl-0" fill="#13314E" d="M27.188 23.485v3.769h6.515v3.935h-6.041v6.379h-4.371V25.523l.782-.872a14.555 14.555 0 0 0 3.1-5.424h7.515v4.258Z" data-name="Path 118"></path><path class="MuiBox-root muirtl-0" fill="#13314E" d="M35.636 25.328h3.972v12.239h-3.972z" data-name="Rectangle 42"></path><path class="MuiBox-root muirtl-0" fill="#13314E" d="M41.406 25.328h3.536v.94s.917-1.248 3.482-1.218a4.6 4.6 0 0 1 4.4 4.325v8.193H48.96v-6.906a2.172 2.172 0 0 0-.572-1.49 1.536 1.536 0 0 0-1.271-.511 1.983 1.983 0 0 0-2.023 1.6v7.3h-3.686Z" data-name="Path 119"></path><path class="MuiBox-root muirtl-0" fill="#13314E" d="M62.853 19.995v5.672a6.207 6.207 0 0 0-5-.437 6.007 6.007 0 0 0-3.128 2.708 7.89 7.89 0 0 0-1.053 3.709 6.3 6.3 0 0 0 1.1 3.776 5.927 5.927 0 0 0 1.377 1.37c2.633 1.805 6.424.135 6.717 0v.73h3.6V19.995Zm-2.8 14.218a2.654 2.654 0 1 1 2.656-2.655 2.655 2.655 0 0 1-2.656 2.655" data-name="Path 120"></path><path class="MuiBox-root muirtl-0" fill="#13314E" d="M81.185 25.2h3.536v1.294a4.786 4.786 0 0 1 3.9-1.294v3.995a3.123 3.123 0 0 0-3.5 1.212 1.565 1.565 0 0 0-.21.8v6.228h-3.724Z" data-name="Path 121"></path><path class="MuiBox-root muirtl-0" fill="#13314E" d="M39.954 21.763a2.328 2.328 0 1 1-2.324-2.325 2.326 2.326 0 0 1 2.324 2.325" data-name="Path 122"></path><path class="MuiBox-root muirtl-0" fill="#13314E" d="M89.895 20.619a.1.1 0 0 1-.007.045.071.071 0 0 1-.038.03.237.237 0 0 1-.082.015.708.708 0 0 1-.144.008.583.583 0 0 1-.127-.008c-.029-.007-.06-.007-.075-.022a.08.08 0 0 1-.045-.038.411.411 0 0 1-.03-.061l-.354-.91c-.045-.1-.083-.2-.128-.286a1.2 1.2 0 0 0-.158-.225.617.617 0 0 0-.218-.143.722.722 0 0 0-.3-.052h-.346v1.64a.1.1 0 0 1-.015.045.069.069 0 0 1-.045.03.226.226 0 0 1-.075.015.575.575 0 0 1-.12.007.535.535 0 0 1-.12-.007.62.62 0 0 1-.075-.015.091.091 0 0 1-.045-.03.07.07 0 0 1-.016-.045v-3.574a.207.207 0 0 1 .061-.165.2.2 0 0 1 .127-.046h.82a1.981 1.981 0 0 1 .241.008c.067.007.121.007.173.015a1.43 1.43 0 0 1 .392.12.919.919 0 0 1 .286.21.847.847 0 0 1 .172.293 1.137 1.137 0 0 1 .06.369.98.98 0 0 1-.053.347.773.773 0 0 1-.151.27 1.181 1.181 0 0 1-.232.2 1.289 1.289 0 0 1-.309.143.833.833 0 0 1 .172.1.963.963 0 0 1 .144.151 1.334 1.334 0 0 1 .128.2 2.77 2.77 0 0 1 .12.263l.346.85a1.445 1.445 0 0 1 .054.151.307.307 0 0 1 .014.09m-.771-2.696a.688.688 0 0 0-.1-.383.567.567 0 0 0-.338-.226 1.132 1.132 0 0 0-.166-.03 2.346 2.346 0 0 0-.249-.007h-.429v1.3h.5a1.028 1.028 0 0 0 .354-.052.663.663 0 0 0 .248-.136.5.5 0 0 0 .144-.21 1.36 1.36 0 0 0 .029-.255" data-name="Path 123"></path><g class="MuiBox-root muirtl-0" data-name="Group 100"><path class="MuiBox-root muirtl-0" fill="#13314E" d="M88.609 21.845a3.062 3.062 0 1 1 3.062-3.062 3.064 3.064 0 0 1-3.062 3.062Zm0-5.77a2.7 2.7 0 1 0 2.7 2.7 2.7 2.7 0 0 0-2.7-2.7Z" data-name="Path 124"></path></g><path class="MuiBox-root muirtl-0" fill="#F8BD2B" d="M23.963 23.116c-.121.151-.249.3-.369.451l-1.377 1.519-8.229 9.072V22.665a7.051 7.051 0 0 0 0-14.022V1.67a13.479 13.479 0 0 1 9.975 21.446" data-name="Path 125"></path><path class="MuiBox-root muirtl-0" fill="#4A9E95" d="M2.628 23.116c.121.151.248.3.369.451l1.375 1.519 8.23 9.072V22.665a7.051 7.051 0 0 1 0-14.022V1.67a13.478 13.478 0 0 0-9.975 21.446" data-name="Path 126"></path></svg>