<svg width="829" height="192" viewBox="0 0 829 192" fill="none" xmlns="http://www.w3.org/2000/svg">
<path d="M121.618 108.854C121.005 109.616 120.36 110.383 119.748 111.146L112.76 118.861L71.0127 164.906V106.563C79.795 105.625 87.9203 101.473 93.8254 94.9039C99.7296 88.3348 102.997 79.8135 102.997 70.9803C102.997 62.1472 99.7296 53.626 93.8254 47.0571C87.9203 40.4881 79.795 36.3355 71.0127 35.3983V0C83.2637 0.797211 95.0741 4.87739 105.205 11.8124C115.337 18.7472 123.415 28.2813 128.593 39.4143C133.77 50.5473 135.857 62.8687 134.632 75.0859C133.408 87.3033 128.919 98.9655 121.635 108.85" fill="#F9BE2B"/>
<path d="M13.3516 108.854C13.9642 109.616 14.6085 110.383 15.2211 111.146L22.2091 118.861L63.9564 164.906V106.563C55.174 105.625 47.0486 101.473 41.1439 94.9039C35.2391 88.3348 31.9723 79.8135 31.9723 70.9803C31.9723 62.1472 35.2391 53.626 41.1439 47.0571C47.0486 40.4881 55.174 36.3355 63.9564 35.3983V0C51.7057 0.797966 39.8955 4.87861 29.7649 11.8138C19.6343 18.7491 11.5567 28.2834 6.37962 39.4163C1.20249 50.5491 -0.883276 62.8702 0.34102 75.087C1.56531 87.3041 6.05443 98.9655 13.3377 108.85" fill="#4A9E95"/>
<path d="M246.904 109.105C248.162 107.907 249.653 106.98 251.283 106.38C252.913 105.781 254.65 105.521 256.384 105.62C258.186 105.479 259.998 105.7 261.713 106.273C263.428 106.845 265.01 107.756 266.366 108.95C268.182 110.732 269.381 113.044 269.793 115.554H243.175C243.757 113.086 245.057 110.841 246.904 109.105ZM229.657 154.909C233.379 158.5 237.773 161.322 242.588 163.212C247.402 165.103 252.542 166.023 257.713 165.924C265.91 166.207 273.976 163.805 280.683 159.085C286.62 154.817 290.914 148.641 292.849 141.59L293.181 140.387L272.03 134.388L271.635 135.504C270.721 138.31 268.868 140.716 266.389 142.317C263.91 143.918 260.955 144.616 258.022 144.295C254.097 144.387 250.273 143.041 247.272 140.51C244.774 138.559 243.124 135.721 242.661 132.586H293.443L293.73 131.723C294.241 129.306 294.414 126.828 294.242 124.363C294.533 119.145 293.779 113.921 292.025 108.998C290.271 104.075 287.552 99.5529 284.028 95.6946C280.324 92.1548 275.937 89.4083 271.134 87.6253C266.331 85.8418 261.214 85.0591 256.098 85.3248C251.117 85.2813 246.179 86.2495 241.583 88.1708C236.988 90.0925 232.829 92.9263 229.362 96.5027C222.064 104.493 218.044 114.941 218.101 125.763C218.16 136.585 222.292 146.988 229.675 154.9" fill="white"/>
<path d="M304.384 191.999H330.83L377.283 87.552H350.65L335.14 125.06L318.084 87.552H290.077L321.663 152.544L304.384 191.999Z" fill="white"/>
<path d="M392.679 52.0078H463.078V76.7502H418.785V100.757H457.746V124.611H418.93V163.871H392.856V103.39" fill="white"/>
<path d="M494.928 87.7205H469.893V163.872H494.928V87.7205Z" fill="white"/>
<path d="M482.286 52.0068C480.659 51.9905 479.046 52.3065 477.545 52.9355C476.045 53.5644 474.689 54.4931 473.56 55.6647C471.221 58.016 469.908 61.1977 469.908 64.5143C469.908 67.8308 471.221 71.0125 473.56 73.3638C474.691 74.5302 476.047 75.4536 477.547 76.0779C479.046 76.7021 480.657 77.0139 482.281 76.9944C483.934 77.018 485.575 76.7087 487.106 76.0851C488.637 75.4614 490.027 74.5359 491.193 73.3638C492.373 72.209 493.31 70.83 493.95 69.308C494.59 67.7861 494.919 66.1517 494.919 64.5007C494.919 62.8497 494.59 61.2152 493.95 59.6932C493.31 58.1712 492.373 56.7924 491.193 55.6375C490.027 54.4659 488.637 53.5407 487.106 52.9171C485.575 52.2933 483.94 51.9838 482.286 52.0068Z" fill="white"/>
<path d="M550.262 85.7904C545.948 85.8128 541.693 86.7892 537.801 88.6499C535.207 89.8272 532.871 91.5046 530.927 93.5869V87.7196H506.635V163.871H531.67V120.386C531.538 117.298 532.616 114.281 534.675 111.976C535.676 110.897 536.9 110.05 538.262 109.493C539.624 108.937 541.091 108.684 542.561 108.754C544.04 108.635 545.527 108.848 546.912 109.376C548.299 109.905 549.55 110.735 550.575 111.808C552.487 114.189 553.455 117.191 553.297 120.24V163.875H578.332V116.383C578.641 108.465 576.122 100.697 571.226 94.4675C568.624 91.5177 565.382 89.2015 561.747 87.6977C558.113 86.1938 554.187 85.5413 550.262 85.7904Z" fill="white"/>
<path d="M635.371 138.383C632.464 141.237 628.554 142.836 624.48 142.836C620.407 142.836 616.497 141.237 613.59 138.383C612.038 136.678 610.844 134.678 610.079 132.502C609.316 130.326 608.997 128.019 609.143 125.717C608.994 123.427 609.311 121.131 610.074 118.968C610.838 116.803 612.032 114.817 613.586 113.128C616.517 110.321 620.418 108.756 624.476 108.756C628.534 108.756 632.435 110.321 635.367 113.128C636.919 114.817 638.114 116.804 638.877 118.968C639.641 121.131 639.958 123.427 639.809 125.717C639.954 128.019 639.635 130.326 638.87 132.503C638.105 134.678 636.911 136.679 635.358 138.383M664.245 149.42V54.0809H639.51V91.2942C634.184 87.2679 627.556 85.3598 620.905 85.9393C615.929 85.8089 610.983 86.7496 606.402 88.6978C601.821 90.6458 597.713 93.5554 594.355 97.2305C587.584 105.196 583.893 115.324 583.949 125.778C584.006 136.233 587.806 146.321 594.663 154.213C598.116 157.885 602.303 160.788 606.953 162.731C611.603 164.676 616.611 165.617 621.649 165.494C625.889 165.55 630.089 164.677 633.956 162.936C636.261 161.9 638.377 160.488 640.218 158.755C640.317 160.117 640.48 161.478 640.707 162.812L640.88 163.866H664.952L664.826 162.504C664.43 158.22 664.236 153.822 664.236 149.434" fill="white"/>
<path d="M696.318 115.722C696.896 113.252 698.191 111.009 700.039 109.272C701.296 108.074 702.787 107.147 704.417 106.548C706.048 105.948 707.783 105.689 709.518 105.788C711.32 105.646 713.133 105.869 714.847 106.44C716.562 107.013 718.144 107.923 719.501 109.118C721.314 110.899 722.511 113.213 722.917 115.722H696.318ZM709.223 85.4968C704.242 85.4538 699.304 86.4224 694.709 88.3435C690.113 90.2653 685.955 93.099 682.487 96.6746C676.681 102.284 672.69 109.506 671.028 117.407C669.367 125.307 670.111 133.525 673.164 140.999C676.219 148.473 681.441 154.859 688.16 159.336C694.878 163.811 702.784 166.171 710.856 166.11C719.053 166.392 727.118 163.991 733.826 159.27C739.764 155.002 744.059 148.827 745.997 141.775L746.328 140.573L725.178 134.578L724.783 135.69C723.869 138.497 722.016 140.903 719.537 142.504C717.058 144.106 714.104 144.805 711.169 144.485C707.246 144.576 703.423 143.232 700.419 140.705C697.921 138.752 696.27 135.913 695.809 132.776H746.591L746.882 131.919C747.387 129.5 747.558 127.023 747.39 124.557C747.679 119.337 746.924 114.112 745.165 109.188C743.407 104.264 740.683 99.7405 737.153 95.8848C733.449 92.3424 729.062 89.595 724.258 87.8112C719.454 86.0267 714.336 85.2439 709.218 85.5103" fill="white"/>
<path d="M796.03 86.9754C792.056 87.01 788.137 87.9081 784.545 89.6073C782.074 90.7305 779.9 92.4131 778.192 94.5225V87.7152H753.901V163.867H778.936V130.46C778.502 125.318 780.1 120.21 783.388 116.233C784.882 114.724 786.674 113.543 788.65 112.765C790.626 111.988 792.742 111.631 794.864 111.718C797.152 111.692 799.436 111.928 801.67 112.421L803.218 112.789V88.0285L802.311 87.7649C800.265 87.2046 798.151 86.9418 796.03 86.9754Z" fill="white"/>
<path d="M813.759 58.1765C812.377 59.5712 810.734 60.6782 808.922 61.4337C807.111 62.1892 805.167 62.5782 803.204 62.5782C801.241 62.5782 799.298 62.1892 797.487 61.4337C795.675 60.6782 794.031 59.5712 792.649 58.1765C789.909 55.2527 788.383 51.3949 788.383 47.3869C788.383 43.3788 789.909 39.5211 792.649 36.5972C794.027 35.1948 795.669 34.0808 797.481 33.3205C799.293 32.5601 801.239 32.1685 803.204 32.1685C805.169 32.1685 807.115 32.5601 808.927 33.3205C810.739 34.0808 812.381 35.1948 813.759 36.5972C816.516 39.5129 818.053 43.3737 818.053 47.3869C818.053 51.4 816.516 55.2609 813.759 58.1765ZM816.999 33.5928C813.81 30.4287 809.624 28.4672 805.153 28.0418C800.681 27.6164 796.2 28.7535 792.473 31.2596C788.745 33.7658 786.001 37.4861 784.707 41.7877C783.412 46.0893 783.648 50.7065 785.374 54.8538C787.1 59.0012 790.209 62.4226 794.172 64.5357C798.136 66.6488 802.709 67.3234 807.114 66.4446C811.519 65.5658 815.484 63.1879 818.333 59.7154C821.183 56.2429 822.741 51.8903 822.743 47.3982C822.779 44.8267 822.288 42.2751 821.3 39.9009C820.312 37.5265 818.848 35.3797 816.999 33.5928Z" fill="white"/>
<path d="M805.664 45.6141C805.11 46.0912 804.393 46.3352 803.663 46.2948H801.395V41.2346H803.663C804.394 41.1954 805.111 41.4411 805.664 41.9198C806.138 42.4177 806.403 43.0792 806.403 43.767C806.403 44.4548 806.138 45.1162 805.664 45.6141ZM808.192 49.7756C809.308 49.2267 810.251 48.3782 810.914 47.3249C811.742 46.0005 812.089 44.4316 811.898 42.8814C811.706 41.3313 810.987 39.8941 809.862 38.8112C809.181 38.1532 808.376 37.6375 807.494 37.2938C806.612 36.9502 805.67 36.7858 804.725 36.8099H795.926V57.7855H801.403V50.7196H802.982L806.199 57.7811H812.203L808.192 49.7756Z" fill="white"/>
<path d="M227.95 56.1383H193.735L158.795 96.3378V55.2444H140.526C141.65 59.8842 142.275 64.6309 142.391 69.4037C142.66 82.5145 139.118 95.4214 132.195 106.558V162.773H158.795V132.993L167.652 123.137L195.42 163.704H227.664L185.831 102.987L227.95 56.1383Z" fill="white"/>
</svg>
